<?xml version="1.0" encoding="UTF-8"?>
<svg version="1.1" xmlns="http://www.w3.org/2000/svg" width="512" height="512">
<path d="M0 0 C168.96 0 337.92 0 512 0 C512 168.96 512 337.92 512 512 C343.04 512 174.08 512 0 512 C0 343.04 0 174.08 0 0 Z " fill="#4035A0" transform="translate(0,0)"/>
<path d="M0 0 C48.18 0 96.36 0 146 0 C146 47.85 146 95.7 146 145 C147.65 145 149.3 145 151 145 C151.60897702 146.62393871 152.21794974 148.24787904 152.8269043 149.87182617 C153.36996483 151.31993222 153.91309916 152.76801059 154.45629883 154.21606445 C155.75506992 157.67858595 157.05287262 161.14145343 158.34765625 164.60546875 C161.70476117 173.580586 165.09908666 182.54140679 168.5 191.5 C171.84201239 200.30376239 175.18055089 209.10856973 178.4765625 217.9296875 C179.69383366 221.18743239 180.92043927 224.44159646 182.1484375 227.6953125 C185.80314497 237.39086509 189.42893541 247.08752844 192.81884766 256.87915039 C194.97532657 263.05617042 197.36285645 269.13814759 199.81689453 275.20263672 C202 280.67955044 202 280.67955044 202 284 C192.1 284 182.2 284 172 284 C169.83400853 278.22402275 167.7626383 272.47059975 165.8125 266.625 C165.40354492 265.41650391 165.40354492 265.41650391 164.98632812 264.18359375 C164.72916016 263.41402344 164.47199219 262.64445312 164.20703125 261.8515625 C163.9747583 261.15885254 163.74248535 260.46614258 163.50317383 259.75244141 C163 258 163 258 163 256 C137.755 256.495 137.755 256.495 112 257 C110.02 262.94 108.04 268.88 106 275 C104.515 279.455 104.515 279.455 103 284 C93.1 284 83.2 284 73 284 C73.78729406 278.48894156 74.5283985 275.22886233 76.625 270.3125 C79.14099724 264.27779757 81.37849998 258.1839844 83.5 252 C85.57226742 245.98074631 87.72025802 240.01976867 90.125 234.125 C92.41750913 228.49902614 94.51348379 222.83622779 96.52734375 217.10546875 C98.39893634 211.83316968 100.39777444 206.60834795 102.375 201.375 C105.24859064 193.76242207 108.03555549 186.13008355 110.6875 178.4375 C113.14168357 171.32304597 115.78492141 164.32215791 118.640625 157.359375 C120.16194284 153.59979643 121.57594275 149.797486 123 146 C94.29 146 65.58 146 36 146 C36 146.99 36 147.98 36 149 C36.804375 149.185625 37.60875 149.37125 38.4375 149.5625 C46.59306435 152.85334175 52.25804521 158.74845683 57 166 C58.051875 167.5159375 58.051875 167.5159375 59.125 169.0625 C62.72812809 175.57235327 65 184.60287454 65 192 C55.43 192 45.86 192 36 192 C35.01 187.71 34.02 183.42 33 179 C28.69240773 172.74976807 25.28663979 169.91283351 18 168 C14.98462814 167.59113602 12.0397387 167.53397003 9 167.5625 C8.24460938 167.54251953 7.48921875 167.52253906 6.7109375 167.50195312 C0.13243671 167.50760476 -5.17496315 169.30816725 -9.98828125 173.89453125 C-18.41161189 186.0946945 -19.3555767 198.031236 -19.31567383 212.47607422 C-19.31251532 214.86342145 -19.33603692 217.24952396 -19.36132812 219.63671875 C-19.41321584 232.08176915 -18.23161909 244.40528923 -11 255 C-4.65434953 261.18555378 2.31404686 262.39619735 10.8996582 262.36791992 C18.3163911 262.18900936 23.00179581 260.26530983 28.8125 255.875 C32.90023396 250.50254965 34.68765743 244.56171283 36 238 C45.57 238 55.14 238 65 238 C62.06591439 255.60451363 57.5564417 267.3733325 43 278 C32.09458105 284.22935652 20.8849563 286.51186879 8.4375 286.375 C7.37853516 286.38660156 6.31957031 286.39820313 5.22851562 286.41015625 C-7.96974376 286.36136416 -20.51074085 281.88284879 -30.3203125 272.80078125 C-46.09200775 255.89205681 -49.22780694 236.05277954 -49.375 213.9375 C-49.3830365 213.26325989 -49.391073 212.58901978 -49.39935303 211.89434814 C-49.58217133 191.63229381 -44.86866356 172.57156028 -30.8125 157.25 C-22.34180422 149.33132709 -11.57644909 144 0 144 C0 96.48 0 48.96 0 0 Z " fill="#595EF7" transform="translate(183,37)"/>
<path d="M0 0 C42.79390027 0 42.79390027 0 63.57165527 0.15332031 C65.07618704 0.16427883 66.5807189 0.1752241 68.08525085 0.18615723 C69.19755444 0.19431458 69.19755444 0.19431458 70.3323288 0.20263672 C73.93325683 0.22879133 77.5341945 0.25347824 81.13513184 0.27832031 C91.52759778 0.35080871 101.92004808 0.42552768 112.3125 0.5 C147.3028125 0.7475 147.3028125 0.7475 183 1 C183 48.52 183 96.04 183 145 C176.37808866 146.32438227 171.67899928 147.24989665 165.22970581 147.24050903 C164.514707 147.24221788 163.7997082 147.24392673 163.06304276 147.24568737 C160.7032171 147.24894208 158.3436855 147.23804605 155.98388672 147.22705078 C154.27799995 147.22648579 152.57211269 147.22680493 150.8662262 147.22793579 C146.26155011 147.22850689 141.65697936 147.21679207 137.05232763 147.20278788 C132.23037603 147.19023987 127.40842171 147.18910682 122.5864563 147.18673706 C113.4671546 147.18053422 104.34790115 147.16413964 95.22862065 147.14403808 C82.89741793 147.11744964 70.5662019 147.10669677 58.23497772 147.09503365 C38.82328237 147.07625815 19.41168884 147.0364045 0 147 C0 98.49 0 49.98 0 0 Z " fill="#1C2254" transform="translate(0,36)"/>
<path d="M0 0 C48.18 0 96.36 0 146 0 C146 48.18 146 96.36 146 146 C97.82 146 49.64 146 0 146 C0 97.82 0 49.64 0 0 Z " fill="#21194F" transform="translate(183,329)"/>
<path d="M0 0 C11.88 0 23.76 0 36 0 C36 96.36 36 192.72 36 292 C24.12 292 12.24 292 0 292 C0 195.64 0 99.28 0 0 Z " fill="#21184F" transform="translate(476,37)"/>
<path d="M0 0 C96.36 0 192.72 0 292 0 C292 11.88 292 23.76 292 36 C195.64 36 99.28 36 0 36 C0 24.12 0 12.24 0 0 Z " fill="#1D1F52" transform="translate(183,0)"/>
<path d="M0 0 C9.24 0 18.48 0 28 0 C28.86625 2.31 29.7325 4.62 30.625 7 C30.92204834 7.79188721 31.21909668 8.58377441 31.52514648 9.3996582 C32.80098793 12.80097437 34.07575642 16.20267587 35.34765625 19.60546875 C38.70476117 28.580586 42.09908666 37.54140679 45.5 46.5 C48.84201239 55.30376239 52.18055089 64.10856973 55.4765625 72.9296875 C56.69383366 76.18743239 57.92043927 79.44159646 59.1484375 82.6953125 C62.80314497 92.39086509 66.42893541 102.08752844 69.81884766 111.87915039 C71.97532657 118.05617042 74.36285645 124.13814759 76.81689453 130.20263672 C79 135.67955044 79 135.67955044 79 139 C69.1 139 59.2 139 49 139 C46.83400853 133.22402275 44.7626383 127.47059975 42.8125 121.625 C42.53986328 120.81933594 42.26722656 120.01367188 41.98632812 119.18359375 C41.60057617 118.02923828 41.60057617 118.02923828 41.20703125 116.8515625 C40.85862183 115.81249756 40.85862183 115.81249756 40.50317383 114.75244141 C40 113 40 113 40 111 C14.755 111.495 14.755 111.495 -11 112 C-12.98 117.94 -14.96 123.88 -17 130 C-17.99 132.97 -18.98 135.94 -20 139 C-29.9 139 -39.8 139 -50 139 C-49.21270594 133.48894156 -48.4716015 130.22886233 -46.375 125.3125 C-43.85900276 119.27779757 -41.62150002 113.1839844 -39.5 107 C-37.42773258 100.98074631 -35.27974198 95.01976867 -32.875 89.125 C-30.58249087 83.49902614 -28.48651621 77.83622779 -26.47265625 72.10546875 C-24.60106366 66.83316968 -22.60222556 61.60834795 -20.625 56.375 C-17.44387675 47.94772148 -14.39736052 39.48670902 -11.46240234 30.97094727 C-9.28988357 24.71366047 -6.89505518 18.57542808 -4.359375 12.45703125 C-2.74948531 8.36291522 -1.39116968 4.17350905 0 0 Z " fill="#FCFCFD" transform="translate(306,182)"/>
<path d="M0 0 C4.27792269 3.46276571 7.27980283 7.29121488 10.35839844 11.79541016 C11.05964844 12.80603516 11.76089844 13.81666016 12.48339844 14.85791016 C16.08652653 21.36776343 18.35839844 30.39828469 18.35839844 37.79541016 C8.78839844 37.79541016 -0.78160156 37.79541016 -10.64160156 37.79541016 C-11.63160156 33.50541016 -12.62160156 29.21541016 -13.64160156 24.79541016 C-17.94919384 18.54517823 -21.35496178 15.70824367 -28.64160156 13.79541016 C-31.65697343 13.38654617 -34.60186286 13.32938019 -37.64160156 13.35791016 C-38.7746875 13.32793945 -38.7746875 13.32793945 -39.93066406 13.29736328 C-46.50916486 13.30301491 -51.81656471 15.1035774 -56.62988281 19.68994141 C-65.05321345 31.89010466 -65.99717826 43.82664615 -65.95727539 58.27148438 C-65.95411688 60.6588316 -65.97763849 63.04493412 -66.00292969 65.43212891 C-66.0548174 77.8771793 -64.87322065 90.20069939 -57.64160156 100.79541016 C-51.29595109 106.98096394 -44.3275547 108.1916075 -35.74194336 108.16333008 C-28.32521046 107.98441952 -23.63980576 106.06071999 -17.82910156 101.67041016 C-13.7413676 96.29795981 -11.95394413 90.35712299 -10.64160156 83.79541016 C-1.07160156 83.79541016 8.49839844 83.79541016 18.35839844 83.79541016 C15.42431283 101.39992379 10.91484014 113.16874265 -3.64160156 123.79541016 C-14.54702051 130.02476668 -25.75664526 132.30727895 -38.20410156 132.17041016 C-39.26306641 132.18201172 -40.32203125 132.19361328 -41.41308594 132.20556641 C-54.61134533 132.15677432 -67.15234241 127.67825894 -76.96191406 118.59619141 C-92.73360931 101.68746697 -95.8694085 81.84818969 -96.01660156 59.73291016 C-96.02463806 59.05867004 -96.03267456 58.38442993 -96.04095459 57.6897583 C-96.22377289 37.42770397 -91.51026512 18.36697044 -77.45410156 3.04541016 C-56.84606668 -16.2196292 -22.29853809 -16.36243113 0 0 Z " fill="#FDFCFE" transform="translate(229.6416015625,191.20458984375)"/>
<path d="M0 0 C12.21 0 24.42 0 37 0 C37 60.39 37 120.78 37 183 C24.79 183 12.58 183 0 183 C0 122.61 0 62.22 0 0 Z " fill="#5B59F3" transform="translate(0,329)"/>
<path d="M0 0 C60.39 0 120.78 0 183 0 C183 11.88 183 23.76 183 36 C122.61 36 62.22 36 0 36 C0 24.12 0 12.24 0 0 Z " fill="#536CFD" transform="translate(0,0)"/>
<path d="M0 0 C48.18 0 96.36 0 146 0 C146 11.88 146 23.76 146 36 C97.82 36 49.64 36 0 36 C0 24.12 0 12.24 0 0 Z " fill="#201A50" transform="translate(37,476)"/>
<path d="M0 0 C11.88 0 23.76 0 36 0 C36 48.18 36 96.36 36 146 C24.12 146 12.24 146 0 146 C0 97.82 0 49.64 0 0 Z " fill="#000000" transform="translate(0,37)"/>
<path d="M0 0 C12.21 0 24.42 0 37 0 C37 11.88 37 23.76 37 36 C24.79 36 12.58 36 0 36 C0 24.12 0 12.24 0 0 Z " fill="#3749AA" transform="translate(0,0)"/>
<path d="M0 0 C11.88 0 23.76 0 36 0 C36 11.88 36 23.76 36 36 C24.12 36 12.24 36 0 36 C0 24.12 0 12.24 0 0 Z " fill="#000000" transform="translate(476,476)"/>
<path d="M0 0 C11.88 0 23.76 0 36 0 C36 11.88 36 23.76 36 36 C24.12 36 12.24 36 0 36 C0 24.12 0 12.24 0 0 Z " fill="#1F1C50" transform="translate(476,0)"/>
<path d="M0 0 C0.66 0 1.32 0 2 0 C2.27674561 0.83547363 2.55349121 1.67094727 2.83862305 2.53173828 C3.89040166 5.70436663 4.94364407 8.87650187 5.99780273 12.04833984 C6.44921405 13.40752734 6.90008188 14.76689549 7.3503418 16.12646484 C8.00678247 18.10825556 8.66503327 20.08943316 9.32421875 22.0703125 C9.54302704 22.72904358 9.76183533 23.38777466 9.98727417 24.06646729 C11.0858066 27.35135135 12.21522363 30.61985092 13.41259766 33.87011719 C13.86038574 35.08602539 14.30817383 36.30193359 14.76953125 37.5546875 C15.17405518 38.62960449 15.5785791 39.70452148 15.99536133 40.81201172 C17 44 17 44 18 51 C6.78 51 -4.44 51 -16 51 C-14.19895794 43.79583177 -12.78149451 38.13239107 -10.01269531 31.54101562 C-8.15476291 26.87916403 -6.79579395 22.05932465 -5.375 17.25 C-4.77932587 15.25500516 -4.1829913 13.26020737 -3.5859375 11.265625 C-3.31233398 10.34974609 -3.03873047 9.43386719 -2.75683594 8.49023438 C-1.89104908 5.64151632 -0.96734016 2.81582185 0 0 Z " fill="#4339A2" transform="translate(319,218)"/>
<path d="M0 0 C0.33 0 0.66 0 1 0 C1 11.88 1 23.76 1 36 C12.88 36 24.76 36 37 36 C37 36.33 37 36.66 37 37 C25.12 37 13.24 37 1 37 C1 133.36 1 229.72 1 329 C0.67 329 0.34 329 0 329 C0 232.64 0 136.28 0 37 C-144.54 37 -289.08 37 -438 37 C-438 36.67 -438 36.34 -438 36 C-293.46 36 -148.92 36 0 36 C0 24.12 0 12.24 0 0 Z " fill="#34338C" transform="translate(475,0)"/>
<path d="M0 0 C30.69 0 61.38 0 93 0 C93 0.33 93 0.66 93 1 C64.29 1 35.58 1 6 1 C6 1.66 6 2.32 6 3 C4.02 2.34 2.04 1.68 0 1 C0 0.67 0 0.34 0 0 Z " fill="#5854E9" transform="translate(213,182)"/>
<path d="M0 0 C7.59 0 15.18 0 23 0 C23 0.33 23 0.66 23 1 C17.39 1 11.78 1 6 1 C6 1.66 6 2.32 6 3 C4.02 2.34 2.04 1.68 0 1 C0 0.67 0 0.34 0 0 Z " fill="#595ADD" transform="translate(213,182)"/>
</svg>
